<?xml version="1.0" encoding="UTF-8" standalone="no"?>
<!DOCTYPE svg PUBLIC "-//W3C//DTD SVG 20010904//EN"
              "http://www.w3.org/TR/2001/REC-SVG-20010904/DTD/svg10.dtd">

<svg xmlns="http://www.w3.org/2000/svg"
     width="0.666667in" height="0.666667in"
     viewBox="0 0 200 200">
  <path id="Haus"
        fill="white" stroke="white" stroke-width="0"
        d="M 100.00,10.00
           C 100.00,10.00 0.00,100.00 0.00,100.00
             0.00,100.00 30.00,100.00 30.00,100.00
             30.00,100.00 30.00,190.00 30.00,190.00
             30.00,190.00 170.00,190.00 170.00,190.00
             170.00,190.00 170.00,100.00 170.00,100.00
             170.00,100.00 200.00,100.00 200.00,100.00
             200.00,100.00 100.00,10.00 100.00,10.00 Z
           M 150.00,100.00
           C 150.00,100.00 150.00,180.00 150.00,180.00
             150.00,180.00 130.00,180.00 130.00,180.00
             130.00,180.00 130.00,100.00 130.00,100.00
             130.00,100.00 150.00,100.00 150.00,100.00 Z
           M 110.00,80.00
           C 110.00,80.00 110.00,180.00 110.00,180.00
             110.00,180.00 90.00,180.00 90.00,180.00
             90.00,180.00 90.00,80.00 90.00,80.00
             90.00,80.00 110.00,80.00 110.00,80.00 Z
           M 70.00,120.00
           C 70.00,120.00 70.00,180.00 70.00,180.00
             70.00,180.00 50.00,180.00 50.00,180.00
             50.00,180.00 50.00,120.00 50.00,120.00
             50.00,120.00 70.00,120.00 70.00,120.00 Z" />
</svg>
